<?xml version="1.0" standalone="no"?>
<!DOCTYPE svg PUBLIC "-//W3C//DTD SVG 20010904//EN"
 "http://www.w3.org/TR/2001/REC-SVG-20010904/DTD/svg10.dtd">
<svg version="1.0" xmlns="http://www.w3.org/2000/svg"
 width="640" height="480"
 preserveAspectRatio="xMidYMid meet">

<g transform="translate(0.000000,482.000000) scale(0.100000,-0.100000)"
fill="#000000" stroke="none">
<path d="M2088 4813 c6 -2 18 -2 25 0 6 3 1 5 -13 5 -14 0 -19 -2 -12 -5z"/>
<path d="M2678 4813 c6 -2 18 -2 25 0 6 3 1 5 -13 5 -14 0 -19 -2 -12 -5z"/>
<path d="M2195 4723 c-257 -32 -444 -76 -628 -147 -138 -53 -307 -138 -412
-207 -41 -27 -92 -57 -112 -68 -63 -33 -243 -191 -326 -287 -103 -118 -207
-256 -273 -360 -344 -549 -440 -1236 -260 -1861 103 -356 304 -704 564 -975
362 -376 877 -623 1421 -679 154 -16 452 -6 601 19 244 42 445 108 662 217
230 116 409 245 588 425 410 411 633 907 670 1494 14 211 -7 463 -56 672 -26
113 -99 323 -153 437 -195 417 -518 773 -909 1004 -366 216 -770 325 -1185
322 -89 -1 -175 -4 -192 -6z m347 -153 c70 -20 117 -108 97 -183 -12 -47 -42
-79 -66 -71 -13 4 -15 3 -5 -4 8 -5 13 -12 12 -16 -1 -4 16 -32 39 -62 l40
-54 -64 0 -64 0 -33 47 c-18 26 -36 51 -39 56 -4 5 -41 6 -88 2 l-81 -7 0 -49
0 -49 -55 0 -55 0 0 169 c0 93 -4 181 -10 195 l-9 25 72 4 c163 7 274 6 309
-3z m578 -110 c66 -18 143 -73 177 -124 41 -63 50 -118 28 -174 -19 -47 -80
-106 -102 -98 -8 3 -11 2 -8 -4 9 -15 -72 -32 -123 -24 -66 9 -146 41 -168 66
l-19 21 30 -18 30 -17 -25 20 c-13 11 -28 18 -32 16 -12 -8 -58 42 -74 81 -40
97 6 206 106 249 40 17 129 20 180 6z m-1565 -258 c88 -57 166 -109 173 -116
11 -11 6 -18 -33 -40 l-47 -26 -31 22 -30 22 -41 -24 c-183 -103 -176 -98
-176 -139 0 -36 -4 -41 -44 -65 -25 -14 -47 -26 -50 -26 -3 0 -6 89 -6 198 0
155 -3 202 -14 217 -13 18 -10 22 52 57 36 20 71 34 77 30 5 -3 82 -53 170
-110z m2170 -217 c-8 -65 -14 -120 -12 -121 2 -2 193 40 220 48 7 2 33 -17 59
-42 l48 -45 -115 -150 c-63 -82 -118 -151 -123 -153 -4 -1 -24 15 -44 35 l-37
38 66 88 c36 48 63 90 60 94 -4 3 -49 -4 -102 -16 -52 -12 -105 -20 -117 -16
-18 5 -20 4 -8 -4 12 -9 11 -11 -7 -11 -27 0 -27 -12 -8 134 9 65 14 123 12
130 -2 6 -40 -24 -84 -66 -44 -43 -83 -78 -88 -78 -5 0 -5 3 -2 7 10 9 -43 63
-62 63 -8 0 44 60 117 133 73 74 132 140 132 148 0 7 25 -11 55 -41 l55 -55
-15 -120z m-2691 47 c25 -27 26 -30 9 -43 -11 -9 -14 -10 -9 -1 13 21 1 13
-30 -20 -28 -32 -28 -32 -1 -9 58 52 22 1 -65 -89 -50 -52 -85 -86 -78 -75 8
11 39 46 69 78 31 31 52 57 49 57 -8 0 -117 -113 -136 -143 -9 -12 -12 -19 -8
-15 4 3 22 -10 39 -29 l32 -34 77 79 77 79 33 -28 33 -28 -55 -58 c-104 -109
-100 -97 -51 -147 l43 -44 -38 -41 -39 -41 -131 123 c-72 69 -137 126 -145
129 -9 3 23 44 96 122 61 64 128 136 150 161 22 24 43 44 46 45 3 0 18 -13 33
-28z m1626 -18 c337 -58 606 -195 859 -439 399 -383 568 -950 447 -1495 -88
-395 -317 -729 -669 -977 -156 -110 -383 -207 -583 -247 -388 -80 -832 0
-1167 211 -376 236 -633 608 -728 1053 -31 143 -33 445 -5 595 132 707 711
1239 1431 1315 101 11 304 3 415 -16z m1644 -603 c55 -104 99 -193 99 -198 0
-4 -17 -18 -39 -30 l-39 -22 -52 102 c-54 104 -61 123 -43 112 6 -4 0 14 -12
39 -12 25 -24 44 -26 42 -2 -2 4 -18 13 -36 9 -18 14 -34 11 -37 -2 -3 -12 9
-21 26 -17 33 -22 36 -45 21 -13 -8 -8 -24 33 -105 26 -52 47 -97 47 -100 0
-2 -17 -13 -38 -24 l-39 -20 -16 35 c-20 40 -21 48 -7 39 6 -3 7 1 3 10 -4 13
-8 14 -14 4 -5 -8 -17 6 -35 44 -29 58 -37 64 -64 47 -13 -8 -3 -34 61 -159
l77 -148 -43 -21 -43 -21 -66 129 c-67 130 -74 146 -56 135 6 -3 7 1 3 10 -4
13 -8 14 -13 4 -5 -8 -19 9 -39 49 -17 34 -31 63 -31 66 0 2 70 42 156 88 86
45 159 89 161 96 3 6 8 12 12 12 3 0 51 -85 105 -189z m-3424 9 l40 -20 -90
-181 c-50 -99 -94 -179 -98 -177 -4 2 -73 37 -152 79 -80 42 -157 79 -173 83
l-27 6 26 53 c15 28 28 54 30 56 1 2 63 -28 137 -67 l133 -70 64 129 c36 71
66 129 68 129 1 0 21 -9 42 -20z m-183 -519 c-9 -56 -11 -59 -46 -70 l-37 -11
-18 -121 -18 -122 23 -18 c13 -10 28 -19 32 -19 9 0 -1 -87 -12 -106 -4 -7
-70 38 -166 112 -88 68 -168 124 -179 124 -17 0 -18 5 -12 53 13 98 -3 86 224
164 114 40 210 72 213 72 3 1 1 -25 -4 -58z m3711 25 c81 -52 123 -129 130
-241 10 -158 -67 -264 -191 -265 -48 0 -112 24 -103 39 3 4 -5 18 -19 31 -13
12 -29 35 -36 51 -6 16 -14 28 -16 25 -3 -2 1 -15 8 -28 11 -21 11 -22 -4 -10
-27 23 -52 112 -51 187 0 75 21 133 67 184 51 55 151 68 215 27z m-172 -464
c-8 -7 -25 8 -37 31 -11 21 -10 21 15 -2 14 -14 24 -26 22 -29z"/>
<path d="M2338 4493 c34 -2 88 -2 120 0 31 2 3 3 -63 3 -66 0 -92 -1 -57 -3z"/>
<path d="M2290 4430 l0 -50 108 0 c116 0 132 6 132 50 0 44 -16 50 -132 50
l-108 0 0 -50z"/>
<path d="M2213 4193 c15 -2 37 -2 50 0 12 2 0 4 -28 4 -27 0 -38 -2 -22 -4z"/>
<path d="M2563 4193 c15 -2 39 -2 55 0 15 2 2 4 -28 4 -30 0 -43 -2 -27 -4z"/>
<path d="M3028 4383 c12 -2 30 -2 40 0 9 3 -1 5 -23 4 -22 0 -30 -2 -17 -4z"/>
<path d="M3110 4370 c8 -5 20 -10 25 -10 6 0 3 5 -5 10 -8 5 -19 10 -25 10 -5
0 -3 -5 5 -10z"/>
<path d="M2983 4358 c-32 -16 -55 -71 -47 -113 8 -43 52 -80 121 -101 58 -18
99 -10 136 24 34 32 38 96 7 134 -10 14 -17 28 -14 31 3 3 -5 10 -18 17 -22
11 -22 10 -4 -4 26 -21 17 -20 -35 4 -48 21 -111 25 -146 8z"/>
<path d="M2990 4075 c14 -8 32 -14 40 -14 8 0 0 6 -19 14 -42 19 -54 19 -21 0z"/>
<path d="M3058 4053 c6 -2 18 -2 25 0 6 3 1 5 -13 5 -14 0 -19 -2 -12 -5z"/>
<path d="M3178 4053 c7 -3 16 -2 19 1 4 3 -2 6 -13 5 -11 0 -14 -3 -6 -6z"/>
<path d="M3118 4043 c7 -3 16 -2 19 1 4 3 -2 6 -13 5 -11 0 -14 -3 -6 -6z"/>
<path d="M1370 4120 l0 -71 60 33 c33 18 60 35 60 39 0 5 -82 54 -112 67 -5 2
-8 -29 -8 -68z"/>
<path d="M1548 4064 c-38 -20 -36 -28 2 -9 17 9 30 18 30 20 0 7 -1 6 -32 -11z"/>
<path d="M1670 4055 c-14 -8 -20 -14 -14 -15 5 0 19 7 30 15 24 18 16 19 -16
0z"/>
<path d="M1432 3999 c-40 -23 -71 -43 -69 -45 4 -4 131 67 144 80 12 12 -4 5
-75 -35z"/>
<path d="M1318 3854 c-39 -21 -35 -28 5 -8 37 19 44 24 31 24 -5 -1 -21 -8
-36 -16z"/>
<path d="M3740 3587 c0 -2 15 -16 33 -33 l32 -29 -29 33 c-28 30 -36 37 -36
29z"/>
<path d="M1015 3720 c-32 -33 -57 -61 -54 -63 2 -2 30 25 63 60 32 34 56 63
54 63 -2 0 -30 -27 -63 -60z"/>
<path d="M1013 3538 c-26 -30 -40 -53 -25 -44 12 7 56 66 49 66 -2 0 -13 -10
-24 -22z"/>
<path d="M2363 3953 c26 -2 67 -2 90 0 23 2 2 3 -48 3 -49 0 -68 -1 -42 -3z"/>
<path d="M2188 3943 c6 -2 18 -2 25 0 6 3 1 5 -13 5 -14 0 -19 -2 -12 -5z"/>
<path d="M2578 3943 c6 -2 18 -2 25 0 6 3 1 5 -13 5 -14 0 -19 -2 -12 -5z"/>
<path d="M2138 3933 c7 -3 16 -2 19 1 4 3 -2 6 -13 5 -11 0 -14 -3 -6 -6z"/>
<path d="M2648 3933 c7 -3 16 -2 19 1 4 3 -2 6 -13 5 -11 0 -14 -3 -6 -6z"/>
<path d="M2078 3923 c7 -3 16 -2 19 1 4 3 -2 6 -13 5 -11 0 -14 -3 -6 -6z"/>
<path d="M2155 3900 c-155 -27 -331 -82 -320 -100 3 -5 28 1 57 12 28 10 104
33 167 50 109 30 127 31 296 32 146 0 204 -4 310 -23 157 -28 191 -39 320
-100 115 -55 153 -68 134 -44 -21 24 -136 78 -251 117 -219 74 -491 95 -713
56z"/>
<path d="M1988 3903 c7 -3 16 -2 19 1 4 3 -2 6 -13 5 -11 0 -14 -3 -6 -6z"/>
<path d="M2788 3903 c7 -3 16 -2 19 1 4 3 -2 6 -13 5 -11 0 -14 -3 -6 -6z"/>
<path d="M2900 3870 c8 -5 20 -10 25 -10 6 0 3 5 -5 10 -8 5 -19 10 -25 10 -5
0 -3 -5 5 -10z"/>
<path d="M1817 3843 c-4 -3 -7 -267 -7 -585 l0 -578 23 1 c17 0 19 2 5 7 -15
6 -16 53 -15 584 1 318 2 578 1 578 0 0 -4 -3 -7 -7z"/>
<path d="M2688 3843 c7 -3 16 -2 19 1 4 3 -2 6 -13 5 -11 0 -14 -3 -6 -6z"/>
<path d="M2540 3836 c0 -2 8 -10 18 -17 15 -13 16 -12 3 4 -13 16 -21 21 -21
13z"/>
<path d="M1677 3782 c-96 -50 -233 -141 -269 -179 l-28 -29 -2 -472 -3 -472
-246 0 -246 0 -7 -31 c-9 -45 -7 -322 2 -336 6 -9 72 -13 252 -15 l245 -3 -4
-475 -4 -475 41 -37 c72 -65 315 -218 347 -218 3 0 5 271 5 603 l0 603 108 0
c59 0 160 1 224 2 l118 2 -12 28 c-20 49 -14 209 10 277 12 32 22 63 22 67 0
4 -106 8 -235 8 l-235 0 -2 596 -3 596 -78 -40z"/>
<path d="M2391 3793 c-1 -21 -27 -43 -50 -43 -5 0 -17 7 -25 16 -15 14 -16 14
-16 -6 0 -28 40 -46 69 -31 22 12 37 51 28 73 -3 7 -6 3 -6 -9z"/>
<path d="M2641 3779 c-2 -61 78 -74 99 -16 l10 31 -24 -23 c-29 -27 -62 -21
-76 12 -8 21 -9 21 -9 -4z"/>
<path d="M2470 3774 c0 -31 34 -57 62 -49 25 8 38 23 38 44 0 11 -4 11 -18 -2
-25 -23 -48 -21 -66 5 -16 22 -16 22 -16 2z"/>
<path d="M3111 3778 c40 -33 49 -82 23 -126 l-16 -27 21 24 c34 38 23 110 -21
131 -19 9 -21 9 -7 -2z"/>
<path d="M3197 3645 c-30 -62 -59 -72 -238 -80 l-159 -7 -35 -41 c-19 -22 -35
-44 -35 -48 0 -4 -15 -14 -34 -23 -26 -12 -66 -16 -180 -16 -80 0 -146 -2
-146 -5 0 -16 32 -64 62 -91 67 -61 57 -59 272 -64 193 -5 201 -6 201 -25 0
-19 -8 -20 -200 -25 -128 -3 -207 -9 -221 -17 -43 -24 -134 -146 -134 -178 0
-3 158 -5 350 -5 373 0 395 -2 420 -49 13 -25 13 -67 0 -91 -22 -41 -46 -45
-311 -50 l-255 -5 -75 -37 c-93 -46 -158 -113 -202 -206 -26 -56 -32 -82 -35
-158 -5 -111 11 -175 67 -261 47 -73 120 -133 198 -164 54 -22 77 -24 333 -29
267 -5 275 -6 275 -25 0 -19 -8 -20 -265 -25 -283 -6 -299 -9 -377 -62 -194
-131 -168 -440 45 -545 52 -26 69 -28 202 -33 178 -6 212 -21 241 -107 16 -49
3 -98 -38 -144 -19 -21 -33 -39 -30 -39 11 0 112 40 142 57 45 24 94 73 118
118 17 31 22 58 22 115 0 87 -22 137 -80 188 -71 63 -83 66 -285 70 -102 2
-189 8 -194 12 -5 6 -4 15 4 25 11 13 51 15 274 15 298 0 326 5 424 71 122 81
188 236 164 382 -20 113 -78 205 -168 268 -87 60 -105 63 -404 69 -267 5 -275
6 -275 25 0 19 9 20 230 26 248 7 289 13 400 64 162 74 295 221 346 385 30 94
36 238 15 334 -40 178 -167 348 -322 429 -40 20 -76 37 -81 37 -5 0 -17 -16
-26 -35z"/>
<path d="M2300 3647 c0 -29 44 -36 230 -35 158 0 186 3 197 17 18 23 16 33 -4
23 -22 -11 -393 -10 -410 1 -8 5 -13 3 -13 -6z"/>
<path d="M2020 3548 c0 -16 46 -62 71 -71 9 -3 21 -23 27 -44 7 -26 10 -31 11
-15 2 34 -26 92 -44 92 -9 0 -27 12 -40 26 -17 18 -25 22 -25 12z"/>
<path d="M2180 3520 c12 -16 24 -30 26 -30 3 0 -4 14 -16 30 -12 17 -24 30
-26 30 -3 0 4 -13 16 -30z"/>
<path d="M1253 3453 c-75 -89 -130 -163 -120 -163 2 0 19 21 37 48 19 26 59
73 89 105 30 31 52 60 49 62 -3 3 -28 -20 -55 -52z"/>
<path d="M2280 3471 c0 -12 10 -38 23 -59 12 -20 29 -50 37 -66 8 -16 32 -48
52 -71 21 -23 34 -45 31 -49 -3 -3 -2 -6 3 -6 6 0 15 5 21 11 7 7 -6 27 -43
66 -30 31 -70 87 -89 126 -21 41 -35 61 -35 48z"/>
<path d="M1280 3418 c-100 -117 -213 -297 -260 -418 -27 -67 -76 -231 -85
-282 -6 -29 -4 -38 7 -38 9 0 15 13 16 39 6 92 82 304 157 435 49 86 132 186
150 180 6 -3 18 2 25 10 7 9 15 14 19 11 4 -2 9 20 10 50 1 30 1 55 -1 55 -2
-1 -19 -19 -38 -42z"/>
<path d="M2133 3340 c0 -30 2 -43 4 -27 2 15 2 39 0 55 -2 15 -4 2 -4 -28z"/>
<path d="M2289 3325 c36 -51 51 -69 55 -64 2 2 -14 24 -36 49 -22 25 -31 32
-19 15z"/>
<path d="M2313 3200 c-22 -30 -61 -95 -86 -145 -54 -109 -89 -139 -157 -137
-36 1 -47 -3 -47 -15 0 -12 11 -14 59 -11 75 6 102 30 162 152 24 50 61 110
81 133 20 24 35 51 33 60 -2 13 -14 3 -45 -37z"/>
<path d="M3683 3225 c-3 -9 -3 -19 1 -22 3 -4 6 2 6 12 0 18 1 18 16 -1 14
-18 15 -18 4 4 -13 26 -18 28 -27 7z"/>
<path d="M1930 3218 c1 -7 11 -26 24 -41 32 -40 92 -47 140 -18 l35 22 4 -43
c3 -42 4 -42 5 9 2 62 -10 73 -49 44 -44 -33 -101 -29 -133 10 -14 17 -26 25
-26 17z"/>
<path d="M3735 3160 c9 -16 18 -30 21 -30 2 0 -2 14 -11 30 -9 17 -18 30 -21
30 -2 0 2 -13 11 -30z"/>
<path d="M2359 3153 c-13 -16 -12 -17 4 -4 16 13 21 21 13 21 -2 0 -10 -8 -17
-17z"/>
<path d="M3691 3090 c1 -77 2 -82 11 -46 l11 39 23 -49 c13 -27 24 -53 24 -57
0 -4 10 -29 21 -55 101 -220 117 -666 32 -882 -4 -8 -8 -28 -10 -44 -3 -17
-13 -47 -24 -68 -10 -20 -19 -46 -19 -56 0 -11 -7 -25 -15 -32 -8 -7 -15 -20
-15 -29 0 -10 -9 -27 -21 -39 -11 -12 -18 -26 -15 -31 3 -4 -3 -16 -14 -26
-11 -10 -17 -22 -14 -26 3 -5 0 -9 -5 -9 -6 0 -11 -9 -11 -20 0 -10 -9 -24
-20 -30 -11 -6 -18 -15 -16 -19 8 -12 -29 -43 -39 -34 -4 5 -5 2 -1 -4 8 -15
-92 -140 -108 -135 -6 2 -8 1 -4 -3 12 -13 -16 -34 -30 -23 -9 8 -11 7 -6 -5
4 -12 -3 -22 -25 -34 -17 -10 -31 -24 -31 -30 0 -7 -7 -13 -15 -13 -8 0 -19
-9 -25 -20 -6 -11 -19 -20 -30 -20 -12 0 -17 -5 -14 -14 3 -8 0 -17 -6 -21
-15 -9 -42 15 -36 32 3 7 2 13 -3 13 -4 0 -11 -24 -14 -54 -3 -30 -13 -68 -21
-85 -18 -34 -11 -40 20 -15 10 8 13 12 5 8 -11 -5 -13 -3 -8 10 4 10 7 21 7
26 0 4 26 27 58 51 135 101 300 283 386 426 156 260 234 594 206 883 -19 203
-64 368 -145 534 l-45 91 1 -85z"/>
<path d="M2332 3118 c-14 -19 -44 -79 -40 -83 2 -2 15 19 30 46 26 49 29 60
10 37z"/>
<path d="M3760 3111 c0 -6 4 -13 10 -16 6 -3 7 1 4 9 -7 18 -14 21 -14 7z"/>
<path d="M2122 3060 c0 -14 2 -19 5 -12 2 6 2 18 0 25 -3 6 -5 1 -5 -13z"/>
<path d="M2275 2959 c-4 -6 -5 -12 -2 -15 2 -2 178 -5 390 -5 325 -1 389 -4
399 -16 9 -11 9 -17 -3 -25 -12 -8 -12 -9 1 -5 19 5 25 44 10 63 -11 12 -74
14 -401 14 -264 0 -390 -3 -394 -11z"/>
<path d="M3681 2944 c0 -11 3 -14 6 -6 3 7 2 16 -1 19 -3 4 -6 -2 -5 -13z"/>
<path d="M926 2925 c-9 -26 -7 -32 5 -12 6 10 9 21 6 23 -2 3 -7 -2 -11 -11z"/>
<path d="M3663 2878 c-7 -24 -14 -52 -18 -63 -4 -13 -1 -12 8 5 15 25 33 100
25 100 -2 0 -9 -19 -15 -42z"/>
<path d="M2608 2883 c7 -3 16 -2 19 1 4 3 -2 6 -13 5 -11 0 -14 -3 -6 -6z"/>
<path d="M2548 2873 c7 -3 16 -2 19 1 4 3 -2 6 -13 5 -11 0 -14 -3 -6 -6z"/>
<path d="M891 2794 c0 -11 3 -14 6 -6 3 7 2 16 -1 19 -3 4 -6 -2 -5 -13z"/>
<path d="M2340 2767 c-20 -18 -44 -43 -55 -57 -11 -14 6 0 38 30 51 49 62 61
55 60 -2 -1 -19 -15 -38 -33z"/>
<path d="M3626 2781 c-4 -7 -5 -15 -2 -18 9 -9 19 4 14 18 -4 11 -6 11 -12 0z"/>
<path d="M3588 2708 c-59 -100 -160 -190 -291 -259 -53 -28 -65 -38 -51 -43
11 -4 21 -1 26 9 5 8 18 15 29 15 25 0 110 56 164 107 77 74 159 185 153 205
-2 6 -16 -9 -30 -34z"/>
<path d="M1223 2683 c9 -2 25 -2 35 0 9 3 1 5 -18 5 -19 0 -27 -2 -17 -5z"/>
<path d="M1893 2683 c9 -2 23 -2 30 0 6 3 -1 5 -18 5 -16 0 -22 -2 -12 -5z"/>
<path d="M1973 2683 c9 -2 25 -2 35 0 9 3 1 5 -18 5 -19 0 -27 -2 -17 -5z"/>
<path d="M2053 2683 c9 -2 25 -2 35 0 9 3 1 5 -18 5 -19 0 -27 -2 -17 -5z"/>
<path d="M2143 2683 c9 -2 23 -2 30 0 6 3 -1 5 -18 5 -16 0 -22 -2 -12 -5z"/>
<path d="M2218 2683 c6 -2 18 -2 25 0 6 3 1 5 -13 5 -14 0 -19 -2 -12 -5z"/>
<path d="M890 2176 c0 -9 7 -12 20 -9 15 4 21 -1 26 -23 35 -156 69 -254 129
-374 51 -101 146 -245 209 -315 44 -48 45 -49 46 -23 0 18 -13 41 -42 71 -52
54 -83 91 -79 95 1 2 -4 9 -12 15 -19 17 -107 154 -107 168 0 7 -6 20 -13 28
-20 24 -68 141 -62 151 3 5 1 11 -4 14 -17 11 -55 165 -46 188 4 10 47 13 173
13 92 -1 173 -4 180 -8 7 -5 12 -3 12 7 0 14 -27 16 -215 16 -178 0 -215 -2
-215 -14z"/>
<path d="M1811 1603 c1 -324 4 -578 6 -565 3 18 9 22 21 16 70 -29 239 -75
329 -90 137 -22 351 -22 450 -1 72 16 192 64 128 51 -16 -3 -48 -7 -70 -8 -22
-1 -45 -5 -52 -9 -6 -4 -14 -1 -16 5 -4 10 -6 10 -6 0 -1 -7 -5 -10 -11 -7 -6
3 -7 -1 -4 -10 6 -14 0 -15 -35 -11 -22 2 -43 0 -47 -5 -3 -5 -10 -7 -15 -3
-15 9 -59 12 -63 5 -3 -4 -28 -5 -58 -3 -144 8 -167 10 -177 16 -6 4 -11 2
-11 -3 0 -7 -16 -5 -40 5 -22 9 -47 13 -55 10 -10 -3 -13 -2 -9 5 4 7 -3 10
-17 8 -13 -1 -32 2 -42 6 -10 4 -26 9 -35 9 -10 1 -30 8 -47 15 -55 25 -70 30
-90 33 -20 3 -20 12 -23 534 -2 433 0 533 11 548 12 16 29 19 111 20 54 1 99
-2 101 -5 5 -8 37 -5 53 5 6 4 19 3 29 -2 10 -6 27 -6 45 0 26 9 33 7 58 -17
16 -16 27 -32 24 -36 -2 -4 5 -13 16 -19 11 -6 20 -15 20 -21 0 -13 55 -69 68
-69 5 0 12 -7 16 -15 3 -8 10 -15 16 -15 6 0 26 -12 45 -27 l33 -26 -21 -19
c-15 -13 -10 -12 15 4 21 13 38 25 38 28 0 3 -25 18 -56 33 -66 33 -156 114
-191 174 l-25 43 -209 0 -209 0 1 -587z m854 -613 c3 -6 -4 -10 -17 -10 -18 0
-20 2 -8 10 19 12 18 12 25 0z"/>
<path d="M881 2114 c0 -11 3 -14 6 -6 3 7 2 16 -1 19 -3 4 -6 -2 -5 -13z"/>
<path d="M891 2064 c0 -11 3 -14 6 -6 3 7 2 16 -1 19 -3 4 -6 -2 -5 -13z"/>
<path d="M901 2024 c0 -11 3 -14 6 -6 3 7 2 16 -1 19 -3 4 -6 -2 -5 -13z"/>
<path d="M3543 1965 c0 -22 2 -30 4 -17 2 12 2 30 0 40 -3 9 -5 -1 -4 -23z"/>
<path d="M921 1960 c0 -8 4 -22 9 -30 12 -18 12 -2 0 25 -6 13 -9 15 -9 5z"/>
<path d="M946 1890 c3 -14 11 -32 16 -40 6 -10 7 -7 2 10 -3 14 -11 32 -16 40
-6 10 -7 7 -2 -10z"/>
<path d="M3518 1852 c-23 -77 -71 -146 -144 -205 -75 -60 -125 -85 -209 -100
-53 -10 -64 -15 -53 -24 16 -14 70 -4 161 29 67 24 181 128 216 196 28 55 53
130 49 148 -2 8 -11 -12 -20 -44z"/>
<path d="M2394 1868 l-19 -23 23 19 c12 11 22 21 22 23 0 8 -8 2 -26 -19z"/>
<path d="M2358 1823 c-18 -21 -31 -43 -25 -43 2 0 13 14 25 30 25 33 24 41 0
13z"/>
<path d="M3796 1825 c-9 -26 -7 -32 5 -12 6 10 9 21 6 23 -2 3 -7 -2 -11 -11z"/>
<path d="M981 1805 c0 -5 6 -21 14 -35 8 -14 14 -20 14 -15 0 6 -6 21 -14 35
-8 14 -14 21 -14 15z"/>
<path d="M1016 1727 c3 -10 9 -15 12 -12 3 3 0 11 -7 18 -10 9 -11 8 -5 -6z"/>
<path d="M3720 1670 c-6 -11 -8 -20 -6 -20 3 0 10 9 16 20 6 11 8 20 6 20 -3
0 -10 -9 -16 -20z"/>
<path d="M1066 1637 c3 -10 9 -15 12 -12 3 3 0 11 -7 18 -10 9 -11 8 -5 -6z"/>
<path d="M2282 1630 c0 -14 2 -19 5 -12 2 6 2 18 0 25 -3 6 -5 1 -5 -13z"/>
<path d="M3666 1583 c-20 -32 -27 -46 -14 -31 26 30 62 88 55 88 -2 0 -21 -26
-41 -57z"/>
<path d="M2282 1550 c0 -14 2 -19 5 -12 2 6 2 18 0 25 -3 6 -5 1 -5 -13z"/>
<path d="M3594 1483 c-16 -21 -62 -74 -104 -119 l-75 -81 86 87 c78 79 137
150 126 150 -3 0 -17 -17 -33 -37z"/>
<path d="M2295 1480 c3 -5 8 -10 11 -10 2 0 4 5 4 10 0 6 -5 10 -11 10 -5 0
-7 -4 -4 -10z"/>
<path d="M1265 1400 c27 -27 51 -50 54 -50 3 0 -17 23 -44 50 -27 28 -51 50
-54 50 -3 0 17 -22 44 -50z"/>
<path d="M2310 1443 c0 -13 52 -94 76 -118 50 -50 124 -94 177 -104 28 -6 107
-11 173 -13 103 -3 125 -6 143 -22 12 -11 21 -27 21 -37 0 -10 5 -21 11 -25
22 -13 -1 50 -27 76 -23 24 -31 25 -172 30 -131 5 -153 8 -203 32 -69 31 -131
87 -166 145 -24 41 -33 51 -33 36z"/>
<path d="M3345 1237 c-28 -23 -61 -50 -75 -60 -24 -17 -24 -17 8 0 31 17 133
102 122 102 -3 0 -28 -19 -55 -42z"/>
<path d="M2855 1037 c-37 -38 -38 -39 -7 -18 17 12 37 31 42 42 14 26 11 24
-35 -24z"/>
<path d="M2188 913 c7 -3 16 -2 19 1 4 3 -2 6 -13 5 -11 0 -14 -3 -6 -6z"/>
<path d="M2588 913 c7 -3 16 -2 19 1 4 3 -2 6 -13 5 -11 0 -14 -3 -6 -6z"/>
<path d="M2468 903 c6 -2 18 -2 25 0 6 3 1 5 -13 5 -14 0 -19 -2 -12 -5z"/>
<path d="M4066 3377 c3 -10 9 -15 12 -12 3 3 0 11 -7 18 -10 9 -11 8 -5 -6z"/>
<path d="M3920 3331 c0 -6 4 -13 10 -16 6 -3 7 1 4 9 -7 18 -14 21 -14 7z"/>
<path d="M4100 3311 c0 -6 4 -13 10 -16 6 -3 7 1 4 9 -7 18 -14 21 -14 7z"/>
<path d="M4305 3230 c14 -27 28 -50 30 -50 3 0 -6 23 -20 50 -14 28 -28 50
-30 50 -3 0 6 -22 20 -50z"/>
<path d="M3996 3187 c3 -10 9 -15 12 -12 3 3 0 11 -7 18 -10 9 -11 8 -5 -6z"/>
<path d="M4040 3100 c17 -33 33 -60 35 -60 3 0 -8 27 -25 60 -17 33 -33 60
-35 60 -3 0 8 -27 25 -60z"/>
<path d="M875 3359 c-4 -6 -5 -12 -2 -15 2 -3 7 2 10 11 7 17 1 20 -8 4z"/>
<path d="M855 3319 c-4 -6 -5 -12 -2 -15 2 -3 7 2 10 11 7 17 1 20 -8 4z"/>
<path d="M825 3259 c-4 -6 -5 -12 -2 -15 2 -3 7 2 10 11 7 17 1 20 -8 4z"/>
<path d="M805 3219 c-4 -6 -5 -12 -2 -15 2 -3 7 2 10 11 7 17 1 20 -8 4z"/>
<path d="M759 3129 c-16 -34 -29 -63 -27 -65 2 -2 18 26 36 61 17 36 30 65 27
65 -3 0 -19 -27 -36 -61z"/>
<path d="M595 2829 c-11 -16 -1 -19 13 -3 7 8 8 14 3 14 -5 0 -13 -5 -16 -11z"/>
<path d="M469 2782 c10 -7 0 -14 -40 -27 l-53 -18 30 -24 c74 -61 82 -65 87
-46 13 45 18 113 8 113 -5 0 -18 3 -28 6 -13 4 -15 3 -4 -4z"/>
<path d="M572 2705 c0 -16 2 -22 5 -12 2 9 2 23 0 30 -3 6 -5 -1 -5 -18z"/>
<path d="M561 2634 c0 -11 3 -14 6 -6 3 7 2 16 -1 19 -3 4 -6 -2 -5 -13z"/>
<path d="M611 2504 c0 -11 3 -14 6 -6 3 7 2 16 -1 19 -3 4 -6 -2 -5 -13z"/>
<path d="M4321 2831 c-61 -8 -86 -30 -97 -88 -8 -45 10 -126 36 -163 25 -35
77 -54 111 -41 48 18 64 48 64 120 0 36 -4 79 -9 95 -7 22 -6 27 4 21 19 -11
-5 28 -27 46 -17 13 -17 13 0 -7 26 -31 21 -41 -8 -14 -13 12 -22 27 -19 31 3
5 4 8 2 8 -2 -1 -27 -5 -57 -8z"/>
<path d="M4142 2695 c0 -16 2 -22 5 -12 2 9 2 23 0 30 -3 6 -5 -1 -5 -18z"/>
<path d="M4267 2449 c7 -7 15 -10 18 -7 3 3 -2 9 -12 12 -14 6 -15 5 -6 -5z"/>
<path d="M3760 4406 c0 -2 8 -10 18 -17 15 -13 16 -12 3 4 -13 16 -21 21 -21
13z"/>
<path d="M3830 4356 c0 -2 8 -10 18 -17 15 -13 16 -12 3 4 -13 16 -21 21 -21
13z"/>
<path d="M899 4313 c-13 -16 -12 -17 4 -4 9 7 17 15 17 17 0 8 -8 3 -21 -13z"/>
<path d="M3920 4284 c30 -26 107 -98 171 -159 l115 -110 -125 125 c-69 69
-146 140 -171 159 -37 27 -35 25 10 -15z"/>
<path d="M849 4273 l-24 -28 28 24 c25 23 32 31 24 31 -2 0 -14 -12 -28 -27z"/>
<path d="M760 4195 c-24 -25 -42 -45 -39 -45 3 0 25 20 49 45 24 25 42 45 39
45 -3 0 -25 -20 -49 -45z"/>
<path d="M630 4063 l-55 -58 58 55 c53 50 62 60 54 60 -1 0 -27 -26 -57 -57z"/>
<path d="M523 3943 c-55 -69 -66 -83 -61 -83 2 0 28 29 56 65 29 36 51 65 48
65 -2 0 -22 -21 -43 -47z"/>
<path d="M4240 3965 c13 -14 26 -25 28 -25 3 0 -5 11 -18 25 -13 14 -26 25
-28 25 -3 0 5 -11 18 -25z"/>
<path d="M4280 3916 c0 -2 8 -10 18 -17 15 -13 16 -12 3 4 -13 16 -21 21 -21
13z"/>
<path d="M439 3833 c-13 -16 -12 -17 4 -4 9 7 17 15 17 17 0 8 -8 3 -21 -13z"/>
<path d="M295 3610 c-9 -16 -13 -30 -11 -30 3 0 12 14 21 30 9 17 13 30 11 30
-3 0 -12 -13 -21 -30z"/>
<path d="M196 3413 c-6 -14 -5 -15 5 -6 7 7 10 15 7 18 -3 3 -9 -2 -12 -12z"/>
<path d="M4580 3205 c0 -5 5 -17 10 -25 5 -8 10 -10 10 -5 0 6 -5 17 -10 25
-5 8 -10 11 -10 5z"/>
<path d="M161 3074 c0 -11 3 -14 6 -6 3 7 2 16 -1 19 -3 4 -6 -2 -5 -13z"/>
<path d="M141 3004 c0 -11 3 -14 6 -6 3 7 2 16 -1 19 -3 4 -6 -2 -5 -13z"/>
<path d="M4651 2964 c0 -11 3 -14 6 -6 3 7 2 16 -1 19 -3 4 -6 -2 -5 -13z"/>
<path d="M126 2944 c-4 -14 -5 -28 -3 -31 3 -2 8 8 11 23 4 14 5 28 3 31 -3 2
-8 -8 -11 -23z"/>
<path d="M112 2870 c0 -14 2 -19 5 -12 2 6 2 18 0 25 -3 6 -5 1 -5 -13z"/>
<path d="M4671 2874 c0 -11 3 -14 6 -6 3 7 2 16 -1 19 -3 4 -6 -2 -5 -13z"/>
<path d="M102 2810 c0 -14 2 -19 5 -12 2 6 2 18 0 25 -3 6 -5 1 -5 -13z"/>
<path d="M93 2745 c0 -22 2 -30 4 -17 2 12 2 30 0 40 -3 9 -5 -1 -4 -23z"/>
<path d="M4691 2754 c0 -11 3 -14 6 -6 3 7 2 16 -1 19 -3 4 -6 -2 -5 -13z"/>
<path d="M83 2655 c0 -27 2 -38 4 -22 2 15 2 37 0 50 -2 12 -4 0 -4 -28z"/>
<path d="M74 2430 c0 -96 2 -136 3 -87 2 48 2 126 0 175 -1 48 -3 8 -3 -88z"/>
<path d="M83 2205 c0 -27 2 -38 4 -22 2 15 2 37 0 50 -2 12 -4 0 -4 -28z"/>
<path d="M93 2115 c0 -22 2 -30 4 -17 2 12 2 30 0 40 -3 9 -5 -1 -4 -23z"/>
<path d="M4692 2110 c0 -14 2 -19 5 -12 2 6 2 18 0 25 -3 6 -5 1 -5 -13z"/>
<path d="M102 2050 c0 -14 2 -19 5 -12 2 6 2 18 0 25 -3 6 -5 1 -5 -13z"/>
<path d="M112 2000 c0 -14 2 -19 5 -12 2 6 2 18 0 25 -3 6 -5 1 -5 -13z"/>
<path d="M4672 1990 c0 -14 2 -19 5 -12 2 6 2 18 0 25 -3 6 -5 1 -5 -13z"/>
<path d="M4761 1994 c0 -11 3 -14 6 -6 3 7 2 16 -1 19 -3 4 -6 -2 -5 -13z"/>
<path d="M121 1944 c0 -11 3 -14 6 -6 3 7 2 16 -1 19 -3 4 -6 -2 -5 -13z"/>
<path d="M131 1904 c0 -11 3 -14 6 -6 3 7 2 16 -1 19 -3 4 -6 -2 -5 -13z"/>
<path d="M4741 1894 c0 -11 3 -14 6 -6 3 7 2 16 -1 19 -3 4 -6 -2 -5 -13z"/>
<path d="M141 1860 c0 -8 4 -24 9 -35 5 -13 9 -14 9 -5 0 8 -4 24 -9 35 -5 13
-9 14 -9 5z"/>
<path d="M161 1784 c0 -11 3 -14 6 -6 3 7 2 16 -1 19 -3 4 -6 -2 -5 -13z"/>
<path d="M4711 1774 c0 -11 3 -14 6 -6 3 7 2 16 -1 19 -3 4 -6 -2 -5 -13z"/>
<path d="M4682 1683 c-15 -48 -8 -55 8 -8 7 20 10 38 8 41 -3 2 -10 -13 -16
-33z"/>
<path d="M4641 1568 c-117 -309 -336 -632 -579 -855 -275 -252 -473 -386 -733
-496 -301 -128 -596 -187 -935 -187 -284 0 -489 33 -756 120 -365 120 -673
313 -963 604 -82 83 -122 118 -87 79 384 -437 919 -722 1496 -799 142 -18 487
-18 626 0 415 56 796 209 1119 451 355 266 630 619 800 1029 23 55 40 103 39
108 -2 4 -14 -20 -27 -54z"/>
<path d="M430 1030 c12 -16 24 -30 26 -30 3 0 -4 14 -16 30 -12 17 -24 30 -26
30 -3 0 4 -13 16 -30z"/>
<path d="M490 950 c17 -22 34 -40 37 -40 2 0 -10 18 -27 40 -17 22 -34 40 -37
40 -2 0 10 -18 27 -40z"/>
</g>
</svg>
