<?xml version="1.0" standalone="no"?>
<!DOCTYPE svg PUBLIC "-//W3C//DTD SVG 20010904//EN"
 "http://www.w3.org/TR/2001/REC-SVG-20010904/DTD/svg10.dtd">
<svg version="1.0" xmlns="http://www.w3.org/2000/svg"
 width="237.000000pt" height="142.000000pt" viewBox="0 0 237.000000 142.000000"
 preserveAspectRatio="xMidYMid meet">

<g transform="translate(0.000000,142.000000) scale(0.100000,-0.100000)"
fill="#000000" stroke="none">
<path d="M531 1288 c-205 -29 -380 -181 -452 -393 -35 -103 -34 -252 3 -350
39 -103 72 -157 139 -224 114 -113 241 -165 404 -166 160 0 295 55 405 165
103 103 155 222 170 383 7 83 13 105 36 138 35 51 76 80 133 95 l46 11 3 176
2 177 -47 -6 c-83 -9 -136 -24 -208 -59 -86 -41 -151 -97 -211 -181 -65 -92
-93 -170 -104 -293 -11 -126 -38 -178 -113 -225 -40 -25 -59 -30 -111 -30 -54
0 -71 5 -112 32 -71 46 -98 90 -102 172 -3 49 0 77 13 104 23 48 81 103 123
117 53 17 156 7 191 -19 40 -29 48 -28 56 11 11 50 62 146 112 211 l46 58 -24
19 c-40 30 -150 69 -224 79 -80 11 -87 11 -174 -2z"/>
<path d="M1500 1132 l0 -168 93 -49 c175 -92 204 -122 248 -255 32 -96 57
-141 103 -182 36 -34 39 -38 19 -38 -13 0 -40 16 -60 35 -20 19 -41 35 -47 35
-9 0 6 -20 58 -77 26 -29 28 -33 10 -33 -10 0 -34 9 -52 20 -39 24 -55 25 -72
5 -7 -8 -24 -15 -39 -15 -14 0 -43 -9 -64 -20 -43 -23 -50 -21 -71 22 -21 41
-20 47 9 102 33 62 32 73 -6 42 -17 -15 -43 -26 -59 -26 -27 0 -28 1 -19 32
11 41 12 95 0 102 -5 3 -11 -19 -13 -49 -3 -38 -11 -62 -26 -78 -27 -29 -28
-57 -2 -85 11 -12 25 -32 30 -44 9 -23 9 -23 9 3 1 15 -9 38 -20 53 -14 18
-18 31 -12 37 7 7 19 -2 36 -25 36 -46 38 -112 5 -126 -53 -22 -58 -33 -58
-119 l0 -81 33 0 c54 0 188 39 247 73 76 42 111 72 167 142 95 118 123 218
123 438 l0 127 85 0 c73 0 87 3 92 18 7 22 58 158 89 237 12 33 26 72 29 88
l7 27 -436 0 -436 0 0 -168z"/>
<path d="M1500 853 c0 -10 80 -77 80 -68 0 13 -24 50 -39 62 -18 14 -41 17
-41 6z"/>
<path d="M1712 648 c-19 -19 -14 -37 9 -31 13 4 30 -3 50 -23 39 -37 37 -14
-2 31 -34 39 -39 41 -57 23z"/>
<path d="M1364 477 c1 -17 -5 -23 -29 -25 -103 -8 -115 -13 -131 -45 -9 -18
-38 -59 -65 -93 l-48 -61 49 -27 c65 -35 153 -64 223 -72 l57 -7 0 61 c0 52
-4 64 -29 91 -16 17 -33 31 -38 31 -9 0 -37 40 -31 45 2 2 15 6 30 10 21 6 30
2 43 -19 20 -31 44 -33 76 -8 28 24 21 47 -23 70 -18 9 -44 29 -58 44 -25 25
-26 25 -26 5z m90 -83 c8 -20 -1 -34 -20 -34 -20 0 -30 30 -13 41 20 12 26 11
33 -7z"/>
<path d="M1730 465 c0 -8 5 -15 10 -15 6 0 10 7 10 15 0 8 -4 15 -10 15 -5 0
-10 -7 -10 -15z"/>
</g>
</svg>
