<?xml version="1.0" standalone="no"?>
<!DOCTYPE svg PUBLIC "-//W3C//DTD SVG 20010904//EN"
 "http://www.w3.org/TR/2001/REC-SVG-20010904/DTD/svg10.dtd">
<svg version="1.0" xmlns="http://www.w3.org/2000/svg"
 width="640" height="480" viewBox="0 0 167.000000 100.000000"
 preserveAspectRatio="xMidYMid meet">

<g transform="translate(0.000000,100.000000) scale(0.100000,-0.100000)"
fill="#000000" stroke="none">
<path d="M980 775 c-85 -69 -173 -140 -195 -157 -21 -18 -91 -75 -155 -125
l-115 -93 -129 0 -128 0 5 29 c3 16 9 41 13 57 l7 29 -34 -29 c-52 -44 -199
-184 -199 -190 0 -3 73 -7 162 -8 l162 -3 -111 -87 c-157 -125 -156 -118 -28
-118 122 0 105 -9 273 138 l83 72 225 0 c123 0 224 -2 224 -4 0 -2 -9 -48 -20
-101 -11 -53 -20 -99 -20 -101 0 -2 40 -4 89 -4 l89 0 17 98 c9 53 18 101 19
105 1 5 64 8 140 8 l139 0 56 54 56 55 -187 0 c-104 0 -188 1 -188 3 0 1 18
110 40 241 22 132 40 243 40 248 0 4 -39 8 -87 8 l-88 -1 -155 -124z m155 -47
c-2 -13 -19 -88 -36 -168 -17 -80 -34 -148 -38 -153 -4 -4 -81 -6 -171 -5
l-164 3 199 172 c110 95 203 173 208 173 4 0 5 -10 2 -22z"/>
</g>
</svg>
