<?xml version="1.0" standalone="no"?>
<!DOCTYPE svg PUBLIC "-//W3C//DTD SVG 20010904//EN"
 "http://www.w3.org/TR/2001/REC-SVG-20010904/DTD/svg10.dtd">
<svg version="1.0" xmlns="http://www.w3.org/2000/svg"
 width="640" height="480" viewBox="0 0 292.000000 82.000000"
 preserveAspectRatio="xMidYMid meet">

<g transform="translate(0.000000,82.000000) scale(0.100000,-0.100000)"
fill="#000000" stroke="none">
<path d="M130 700 c0 -7 195 -10 565 -10 l566 0 24 -25 c14 -13 25 -29 25 -35
0 -11 -1125 -15 -1166 -4 -12 3 -27 17 -33 30 -6 14 -16 22 -21 19 -15 -9 17
-65 45 -75 13 -5 31 -23 41 -40 11 -17 29 -33 41 -36 12 -3 33 -23 47 -44 20
-30 36 -42 68 -50 24 -6 70 -20 103 -30 103 -32 228 -69 275 -81 30 -7 57 -24
81 -49 20 -21 49 -45 65 -53 28 -14 158 -52 289 -83 33 -8 80 -22 105 -30 53
-18 75 -14 115 23 17 16 43 38 59 51 l28 22 52 -46 c74 -68 82 -70 162 -45 38
11 87 25 109 30 93 21 242 64 266 76 14 8 43 31 65 53 26 26 55 44 84 52 47
11 173 48 275 80 33 10 79 24 103 30 32 8 48 20 68 50 14 21 36 41 49 44 12 3
32 22 44 41 11 19 27 35 35 35 16 0 56 59 56 83 0 8 -7 18 -16 21 -9 3 -277 6
-596 6 l-580 0 -37 -40 -36 -40 -104 0 -104 0 -37 40 -37 40 -571 0 c-375 0
-572 -3 -572 -10z m2666 -22 c4 -6 -4 -21 -20 -35 l-27 -23 -574 0 c-317 0
-576 4 -579 9 -3 5 5 20 19 35 l24 26 575 0 c426 0 577 -3 582 -12z m-1978
-89 c3 -14 -11 -17 -90 -22 -51 -3 -179 -11 -284 -17 -105 -7 -202 -10 -216
-7 -24 6 -53 49 -41 61 4 4 146 5 317 4 278 -3 311 -5 314 -19z m1250 -78 c2
-69 -1 -97 -10 -103 -15 -9 -1188 -11 -1212 -2 -13 5 -16 23 -16 98 0 51 3 96
7 99 3 4 281 6 617 5 l611 -3 3 -94z m647 90 c3 -5 -5 -22 -18 -37 l-24 -27
-204 13 c-112 7 -242 15 -289 17 -86 5 -108 12 -96 32 9 14 622 15 631 2z
m-1897 -62 c2 -12 -14 -18 -75 -27 -126 -19 -413 -44 -438 -38 -26 7 -41 36
-24 46 6 4 91 11 188 15 97 4 203 11 236 15 81 11 109 8 113 -11z m1584 -3
c120 -7 220 -15 223 -18 11 -11 -8 -38 -31 -44 -24 -6 -318 19 -441 38 -68 10
-86 22 -66 42 5 4 28 4 53 1 25 -4 143 -13 262 -19z m-1582 -50 c0 -8 -5 -18
-10 -21 -15 -9 -267 -48 -315 -48 -50 -1 -130 22 -119 33 5 5 95 17 199 28
243 25 245 25 245 8z m1489 -7 c113 -12 210 -25 215 -29 12 -11 -69 -34 -119
-33 -48 0 -300 39 -315 48 -14 8 -13 35 1 35 6 0 104 -9 218 -21z m-1489 -58
c0 -15 -16 -23 -85 -40 -82 -21 -88 -21 -143 -5 -70 21 -59 28 73 48 132 20
155 20 155 -3z m1410 3 c63 -9 119 -20 123 -24 5 -4 -16 -15 -47 -24 -53 -16
-59 -15 -141 5 -69 17 -85 25 -85 40 0 23 5 23 150 3z m-1290 -39 c0 -17 -110
-55 -155 -54 -60 1 -95 12 -76 24 40 24 231 49 231 30z m123 -18 c-63 -52
-177 -127 -194 -127 -10 0 -24 7 -31 15 -7 9 -19 22 -26 30 -12 13 -8 17 25
31 21 8 65 28 97 44 41 21 73 30 108 30 l50 0 -29 -23z m137 15 c0 -5 -40 -47
-89 -95 -95 -94 -118 -103 -184 -74 l-28 12 64 48 c147 108 161 116 200 116
20 1 37 -3 37 -7z m104 -4 c-4 -7 -15 -24 -24 -38 -10 -14 -38 -57 -64 -97
-27 -40 -57 -75 -68 -79 -16 -5 -88 10 -106 22 -2 1 40 47 94 103 91 94 100
101 136 101 29 0 37 -3 32 -12z m86 0 c-1 -7 -20 -65 -43 -128 -46 -125 -47
-127 -123 -115 -50 7 -53 16 -21 55 12 16 35 50 51 77 66 110 77 123 107 123
17 0 29 -5 29 -12z m135 -100 c21 -62 42 -121 47 -130 14 -28 0 -21 -55 27
-29 25 -57 45 -64 45 -7 0 -37 -20 -67 -45 -31 -25 -58 -45 -61 -45 -2 0 4 19
14 43 10 23 30 81 46 130 l27 87 38 0 38 0 37 -112z m72 70 c14 -24 48 -76 75
-116 26 -41 48 -78 48 -82 0 -10 -79 -24 -106 -18 -13 2 -29 31 -55 103 -20
55 -39 112 -43 128 -6 25 -4 27 24 27 24 0 35 -8 57 -42z m167 -59 c54 -56 96
-102 94 -103 -2 -1 -21 -8 -44 -15 -69 -22 -71 -20 -169 134 -21 33 -42 66
-48 73 -7 9 0 12 30 12 37 0 46 -6 137 -101z m124 19 l113 -83 -28 -12 c-65
-28 -89 -19 -175 65 -44 42 -84 85 -89 95 -8 15 -5 17 28 17 32 0 57 -14 151
-82z m76 53 c33 -17 78 -37 99 -45 35 -14 37 -17 23 -32 -9 -8 -16 -20 -16
-25 0 -5 -11 -11 -25 -15 -20 -5 -43 6 -108 50 -45 31 -93 65 -107 76 l-25 20
49 0 c34 0 67 -9 110 -29z m163 15 c68 -18 82 -27 57 -37 -41 -16 -119 -9
-171 16 -29 13 -53 27 -53 30 0 10 116 4 167 -9z"/>
<path d="M1008 556 c-25 -18 -22 -33 8 -52 15 -10 23 -23 19 -31 -3 -9 0 -13
7 -11 24 8 20 37 -7 50 -26 12 -31 46 -6 40 7 -1 10 2 6 8 -8 12 -6 12 -27 -4z"/>
<path d="M1182 554 c-18 -12 -22 -24 -20 -52 2 -21 9 -37 18 -40 12 -4 13 -2
3 9 -19 20 -16 50 9 76 25 27 22 29 -10 7z"/>
<path d="M902 507 c-13 -28 -17 -46 -10 -39 18 18 55 15 67 -5 10 -17 10 -17
11 0 0 15 -36 97 -43 97 -1 0 -12 -24 -25 -53z m38 -9 c0 -5 -7 -8 -15 -8 -17
0 -18 2 -9 25 5 13 8 14 15 3 5 -7 9 -16 9 -20z"/>
<path d="M1094 544 c3 -9 6 -32 6 -51 0 -49 6 -39 12 20 4 37 2 47 -9 47 -10
0 -13 -6 -9 -16z"/>
<path d="M1236 534 c17 -25 17 -28 1 -55 -16 -28 -16 -29 3 -19 28 15 28 75
-1 90 -20 11 -20 11 -3 -16z"/>
<path d="M1617 546 c-9 -24 -9 -28 3 -21 6 3 10 -3 10 -14 0 -12 -4 -21 -10
-21 -5 0 -10 6 -10 12 0 7 -7 2 -16 -10 -9 -13 -13 -26 -10 -29 3 -4 6 -1 6 5
0 16 57 15 63 0 2 -7 7 -10 11 -6 4 3 -3 27 -17 53 -18 37 -25 44 -30 31z"/>
<path d="M1690 510 c0 -27 5 -50 10 -50 6 0 10 23 10 50 0 28 -4 50 -10 50 -5
0 -10 -22 -10 -50z"/>
<path d="M1739 546 c9 -11 8 -17 -4 -30 -12 -12 -14 -20 -5 -36 6 -11 15 -20
21 -20 6 0 5 8 -2 21 -8 15 -8 24 0 32 16 16 13 34 -5 41 -14 5 -15 4 -5 -8z"/>
<path d="M1808 513 c7 -65 12 -67 12 -5 0 29 -4 52 -9 52 -5 0 -6 -21 -3 -47z"/>
<path d="M1870 511 c0 -28 5 -51 10 -51 6 0 10 20 10 44 0 25 -4 48 -10 51 -6
4 -10 -13 -10 -44z"/>
<path d="M1922 505 c1 -41 3 -48 5 -22 5 45 12 46 41 7 32 -42 42 -37 41 18
-1 26 -3 38 -6 27 -10 -48 -13 -48 -48 -9 l-34 39 1 -60z"/>
<path d="M1282 503 c1 -37 2 -40 5 -15 5 40 12 40 48 2 33 -35 45 -38 38 -10
-3 11 -9 18 -13 15 -5 -3 -18 8 -30 25 -33 46 -50 39 -48 -17z"/>
<path d="M1448 505 c-3 -48 8 -63 14 -17 l4 27 12 -27 c13 -31 27 -36 36 -12
8 22 8 24 -8 18 -8 -3 -18 7 -26 25 -17 43 -27 39 -32 -14z"/>
<path d="M1529 534 c-9 -11 -10 -17 -1 -23 6 -3 15 -18 21 -31 9 -23 10 -21
10 17 1 47 -10 61 -30 37z"/>
<path d="M980 466 c0 -2 7 -7 16 -10 8 -3 12 -2 9 4 -6 10 -25 14 -25 6z"/>
</g>
</svg>
