<?xml version="1.0" standalone="no"?>
<!DOCTYPE svg PUBLIC "-//W3C//DTD SVG 20010904//EN"
 "http://www.w3.org/TR/2001/REC-SVG-20010904/DTD/svg10.dtd">
<svg version="1.0" xmlns="http://www.w3.org/2000/svg"
 width="640" height="480" viewBox="0 0 177.000000 206.000000"
 preserveAspectRatio="xMidYMid meet">

<g transform="translate(0.000000,206.000000) scale(0.100000,-0.100000)"
fill="#000000" stroke="none">
<path d="M899 1976 c-2 -3 -34 -10 -69 -16 -36 -6 -92 -16 -125 -21 -33 -6
-82 -14 -110 -19 -27 -4 -106 -18 -175 -30 -69 -13 -145 -25 -170 -29 -32 -4
-46 -11 -48 -23 -4 -21 24 -23 91 -9 23 5 67 14 97 20 146 27 178 35 174 43
-3 4 0 8 5 8 6 0 11 -5 11 -11 0 -7 7 -8 18 -4 9 4 42 11 72 15 30 5 87 14
125 21 87 16 165 16 275 0 47 -7 114 -16 150 -21 36 -5 97 -14 135 -20 39 -5
104 -14 145 -20 41 -5 85 -12 98 -16 16 -5 22 -2 22 9 0 17 -33 26 -107 30
-24 1 -43 5 -43 8 0 3 -24 9 -52 12 -29 4 -84 11 -123 17 -38 6 -99 15 -135
20 -143 19 -226 31 -241 36 -8 2 -17 2 -20 0z"/>
<path d="M839 1896 c-5 -5 -96 -22 -184 -36 -61 -9 -330 -56 -403 -71 l-52
-10 0 -198 c0 -447 31 -605 181 -916 100 -207 337 -473 522 -584 l37 -23 47
28 c25 15 105 86 178 158 332 333 464 669 465 1187 0 102 -3 227 -6 277 l-7
90 -61 11 c-34 6 -95 15 -136 21 -41 6 -100 15 -130 20 -30 5 -89 14 -130 20
-41 6 -100 15 -131 20 -56 10 -182 14 -190 6z m223 -96 c199 -14 479 -79 537
-124 11 -8 12 -61 8 -281 -4 -247 -7 -279 -30 -378 -57 -239 -153 -439 -296
-617 -96 -119 -187 -208 -302 -293 l-36 -27 -87 61 c-217 155 -417 411 -516
664 -81 205 -106 353 -114 663 l-4 182 26 14 c111 57 379 123 552 135 58 5
110 9 115 9 6 1 72 -3 147 -8z"/>
<path d="M870 1746 c0 -13 -4 -16 -12 -9 -9 6 -25 4 -47 -7 -34 -17 -34 -17
-12 -32 23 -16 20 -18 -88 -68 -28 -13 -36 -37 -21 -65 11 -20 19 -25 35 -19
28 10 97 6 109 -6 19 -19 -68 -168 -123 -207 -39 -30 -48 -29 -106 8 -63 40
-90 34 -106 -24 -12 -43 -19 -64 -37 -107 -15 -35 -22 -101 -13 -124 7 -18 9
-17 28 8 l21 26 12 -52 c19 -79 80 -159 94 -123 6 17 -9 65 -21 65 -10 0 -30
46 -38 90 -4 19 -9 43 -11 53 -8 25 6 21 75 -23 34 -22 65 -40 70 -40 4 0 32
-24 62 -52 30 -29 70 -66 90 -83 19 -16 30 -26 22 -21 -10 6 -13 1 -13 -24 0
-28 18 -73 51 -130 24 -40 32 -61 25 -67 -3 -4 -30 -1 -59 5 -145 34 -202 36
-190 6 8 -20 61 -46 76 -37 6 4 25 6 42 5 43 -4 145 -33 151 -43 9 -16 22 -10
30 13 l7 22 18 -23 c30 -37 23 -56 -45 -123 -82 -80 -102 -144 -35 -108 10 6
19 16 19 23 0 7 32 43 71 80 60 58 70 71 65 92 -3 14 -9 37 -12 51 -6 21 1 33
45 74 31 28 58 63 66 86 16 48 31 42 28 -11 l-2 -40 13 40 c11 34 14 37 21 21
6 -13 2 -31 -13 -57 -30 -52 -28 -72 3 -27 14 20 25 42 25 47 0 15 17 14 23
-1 3 -7 6 10 6 38 1 40 6 55 26 74 41 38 59 99 48 163 -7 38 -6 63 3 88 18 48
17 83 0 43 -8 -18 -18 -34 -24 -38 -20 -12 -22 28 -2 66 27 53 25 56 -11 19
-17 -18 -33 -30 -36 -28 -9 9 8 65 23 78 8 6 14 16 14 21 0 16 -30 -12 -46
-43 -18 -36 -18 -73 2 -150 25 -98 6 -171 -54 -198 -34 -16 -37 -14 -56 27
-10 21 -27 46 -39 55 -12 8 -40 29 -63 45 -59 43 -131 158 -111 179 4 3 24 -3
46 -14 l39 -20 -16 26 c-10 14 -12 22 -4 18 6 -5 12 -4 12 2 0 5 -6 12 -12 14
-9 4 -8 6 2 6 9 1 21 -4 28 -11 21 -21 23 -2 2 20 -26 28 -25 35 4 28 19 -5
24 -2 22 10 -1 9 -10 22 -20 29 -11 9 -14 15 -6 20 6 4 17 1 25 -5 10 -8 15
-9 15 -2 0 11 -42 47 -63 55 -7 2 -8 8 -4 13 5 5 22 1 39 -9 17 -10 33 -15 36
-12 3 3 1 5 -5 5 -5 0 -15 12 -22 27 -11 24 -10 25 4 13 23 -19 29 -5 7 16
-11 11 -23 29 -26 42 -7 21 -6 21 20 12 19 -8 30 -8 38 0 7 7 4 10 -10 10 -11
0 -29 7 -40 15 -18 13 -16 14 21 16 29 1 33 3 14 6 -15 2 -35 13 -45 24 -20
23 -15 24 31 5 29 -13 33 -13 28 0 -3 8 -9 14 -15 14 -5 0 -25 11 -44 24 l-35
24 28 10 28 10 -35 2 c-19 0 -44 7 -54 15 -11 8 -31 15 -44 15 -13 0 -32 10
-43 23 -17 20 -18 20 -19 3z m-30 -340 c0 -3 -4 -8 -10 -11 -5 -3 -10 -1 -10
4 0 6 5 11 10 11 6 0 10 -2 10 -4z m-15 -76 c4 -6 -6 -7 -27 -3 -44 8 -48 13
-10 13 17 0 34 -4 37 -10z m-214 -108 c-16 -5 -91 18 -91 29 0 6 5 20 11 31
10 19 12 19 50 -18 22 -21 35 -40 30 -42z m40 11 c-12 -20 -14 -14 -5 12 4 9
9 14 11 11 3 -2 0 -13 -6 -23z m266 -25 c-3 -8 -6 -5 -6 6 -1 11 2 17 5 13 3
-3 4 -12 1 -19z m-430 -60 c-3 -8 -6 -5 -6 6 -1 11 2 17 5 13 3 -3 4 -12 1
-19z m343 -166 c0 -3 -16 9 -35 28 -19 19 -35 39 -35 44 0 11 70 -61 70 -72z
m480 43 c0 -24 -8 -43 -27 -63 -16 -15 -20 -18 -10 -6 10 12 21 40 24 63 7 50
13 53 13 6z m-330 -5 c0 -5 -5 -10 -11 -10 -5 0 -7 5 -4 10 3 6 8 10 11 10 2
0 4 -4 4 -10z m167 -157 c-3 -10 -5 -4 -5 12 0 17 2 24 5 18 2 -7 2 -21 0 -30z
m-182 -38 c-18 -35 -25 -42 -25 -26 0 12 9 31 20 43 11 12 20 29 21 37 0 9 3
11 5 5 3 -6 -7 -33 -21 -59z m283 40 c-3 -3 -9 2 -12 12 -6 14 -5 15 5 6 7 -7
10 -15 7 -18z m-271 -67 c-3 -8 -6 -5 -6 6 -1 11 2 17 5 13 3 -3 4 -12 1 -19z"/>
</g>
</svg>
