<?xml version="1.0" standalone="no"?>
<!DOCTYPE svg PUBLIC "-//W3C//DTD SVG 20010904//EN"
 "http://www.w3.org/TR/2001/REC-SVG-20010904/DTD/svg10.dtd">
<svg version="1.0" xmlns="http://www.w3.org/2000/svg"
 width="640" height="480" viewBox="0 0 141.000000 131.000000"
 preserveAspectRatio="xMidYMid meet">

<g transform="translate(0.000000,131.000000) scale(0.100000,-0.100000)"
fill="#000000" stroke="none">
<path d="M620 1227 c-102 -31 -183 -79 -256 -152 -104 -106 -170 -250 -176
-387 -2 -40 -7 -76 -13 -80 -5 -4 -26 -8 -45 -8 -32 0 -38 -5 -68 -59 -17 -33
-32 -62 -32 -65 0 -3 41 -7 92 -8 l91 -3 15 -45 c36 -108 151 -241 262 -303
218 -121 479 -96 683 65 43 35 115 126 144 183 88 172 88 388 0 560 -126 249
-431 381 -697 302z m276 -122 c67 -16 165 -68 204 -110 22 -23 23 -28 10 -48
-7 -12 -45 -76 -83 -142 -39 -66 -84 -143 -100 -172 -20 -34 -34 -49 -42 -43
-5 5 -28 10 -49 12 -37 3 -41 1 -66 -43 -15 -25 -31 -56 -35 -68 -6 -19 -3
-21 28 -21 59 0 64 -20 22 -94 l-37 -66 74 0 c80 0 75 -4 129 95 106 194 248
437 255 437 32 0 56 -213 34 -311 -35 -161 -178 -307 -340 -347 -102 -25 -231
-14 -315 28 -47 24 -124 80 -125 91 0 4 28 7 63 7 l62 0 40 72 c22 39 52 92
66 117 47 84 247 438 258 460 11 21 10 21 -62 21 l-74 0 -45 -77 c-25 -43 -69
-121 -98 -173 -78 -140 -62 -130 -209 -130 -69 0 -132 4 -140 9 -32 21 13 215
69 296 118 172 308 247 506 200z m-395 -670 c-12 -19 -30 -51 -42 -70 -11 -19
-25 -33 -30 -30 -14 9 -66 88 -73 113 -7 22 -6 22 79 22 l87 0 -21 -35z"/>
</g>
</svg>
