<?xml version="1.0" standalone="no"?>
<!DOCTYPE svg PUBLIC "-//W3C//DTD SVG 20010904//EN"
 "http://www.w3.org/TR/2001/REC-SVG-20010904/DTD/svg10.dtd">
<svg version="1.0" xmlns="http://www.w3.org/2000/svg"
 width="145.000000pt" height="133.000000pt" viewBox="0 0 145.000000 133.000000"
 preserveAspectRatio="xMidYMid meet">

<g transform="translate(0.000000,133.000000) scale(0.100000,-0.100000)"
fill="#000000" stroke="none">
<path d="M591 1209 c-172 -43 -291 -142 -371 -307 -70 -145 -61 -370 19 -498
11 -17 12 -17 7 6 -3 14 -14 51 -26 83 -26 74 -36 194 -21 272 27 146 144 306
272 374 60 33 244 85 260 75 5 -3 9 -122 9 -265 0 -157 4 -259 10 -259 19 0
60 24 60 35 0 19 -28 224 -44 325 -9 52 -16 110 -16 128 0 29 3 32 32 32 56 0
25 8 -47 13 -47 2 -94 -2 -144 -14z"/>
<path d="M875 1195 c82 -18 147 -57 225 -135 83 -82 126 -164 150 -282 21
-102 40 -136 40 -72 -1 52 -16 119 -40 171 -11 24 -20 45 -20 47 0 13 -64 97
-105 139 -78 79 -214 148 -285 146 -14 0 2 -7 35 -14z"/>
<path d="M1276 863 c4 -16 12 -37 18 -48 14 -26 11 -215 -4 -280 -44 -194
-205 -363 -408 -430 -58 -19 -203 -25 -287 -12 l-50 7 35 -17 c27 -13 62 -17
150 -17 99 0 126 4 188 26 102 37 174 83 241 154 74 79 124 169 150 271 26
102 26 185 1 287 -11 43 -20 80 -20 82 0 2 -5 4 -10 4 -6 0 -8 -11 -4 -27z"/>
<path d="M137 697 c-11 -30 -8 -108 8 -169 22 -87 64 -166 117 -222 l49 -51
-35 47 c-69 95 -104 192 -123 348 -6 44 -11 59 -16 47z"/>
<path d="M492 521 c-122 -70 -227 -132 -232 -137 -12 -12 48 -94 92 -125 28
-20 25 -14 -21 38 -29 34 -51 68 -48 75 4 11 380 170 436 185 14 3 360 -130
438 -169 13 -6 26 -8 30 -5 9 9 26 -2 -222 140 -207 118 -220 124 -227 104 -4
-16 -6 -17 -7 -5 -1 9 -4 19 -8 21 -5 3 -108 -52 -231 -122z"/>
</g>
</svg>
