<?xml version="1.0" standalone="no"?>
<!DOCTYPE svg PUBLIC "-//W3C//DTD SVG 20010904//EN"
 "http://www.w3.org/TR/2001/REC-SVG-20010904/DTD/svg10.dtd">
<svg version="1.0" xmlns="http://www.w3.org/2000/svg"
 width="172.000000pt" height="68.000000pt" viewBox="0 0 172.000000 68.000000"
 preserveAspectRatio="xMidYMid meet">

<g transform="translate(0.000000,68.000000) scale(0.100000,-0.100000)"
fill="#000000" stroke="none">
<path d="M100 514 c0 -18 23 -44 40 -44 31 0 31 -15 0 -45 -38 -37 -40 -78 -5
-101 14 -9 36 -14 50 -12 21 5 25 1 31 -28 8 -41 0 -64 -21 -64 -19 0 -95 -78
-95 -97 0 -19 24 -16 45 7 10 11 21 17 26 14 5 -3 19 2 32 11 14 8 37 15 53
13 31 -2 74 17 74 32 0 5 -15 4 -32 -4 -40 -17 -121 -36 -127 -30 -7 7 67 34
93 34 31 0 55 24 63 61 3 16 10 29 15 29 6 0 8 -6 5 -13 -10 -27 11 -40 67
-43 31 -1 59 2 62 7 8 13 74 -43 74 -63 0 -28 -41 -34 -61 -9 -16 20 -49 29
-49 14 0 -12 47 -53 60 -53 27 0 109 33 114 46 6 16 -13 64 -26 64 -5 0 -4 -9
2 -19 12 -24 13 -51 1 -51 -5 0 -11 10 -14 23 -3 12 -9 32 -12 45 -6 16 -3 22
9 22 8 0 22 12 31 28 l16 27 -6 -31 c-6 -30 -5 -31 27 -26 l32 5 -17 -26 c-9
-15 -17 -38 -17 -53 0 -26 1 -26 53 -19 28 4 57 11 63 16 7 6 16 4 24 -6 7 -8
19 -15 27 -15 11 0 10 6 -6 27 -12 14 -19 29 -15 32 3 3 14 -5 24 -19 11 -14
20 -20 20 -14 0 6 -9 22 -19 35 -17 23 -32 63 -46 133 -7 33 -110 141 -149
156 -22 8 -39 5 -89 -16 -34 -14 -69 -32 -78 -40 -8 -8 -22 -14 -30 -14 -8 0
-30 -11 -49 -25 -19 -14 -42 -25 -53 -25 -10 0 -47 -16 -82 -36 -53 -29 -68
-33 -85 -24 -30 16 -24 50 15 90 41 42 39 68 -6 77 -16 3 -32 10 -35 14 -6 10
-24 12 -24 3z m519 -117 c0 -21 -1 -21 -9 -2 -12 28 -12 37 0 30 6 -3 10 -16
9 -28z m129 -89 c7 -7 12 -21 12 -32 0 -20 -1 -20 -16 2 -8 12 -20 20 -25 17
-10 -7 -12 8 -2 18 9 10 17 9 31 -5z m-18 -108 c0 -5 -4 -10 -10 -10 -5 0 -10
5 -10 10 0 6 5 10 10 10 6 0 10 -4 10 -10z"/>
<path d="M1086 465 c-87 -69 -94 -80 -117 -167 -9 -39 -28 -81 -40 -94 -12
-13 -19 -27 -16 -30 4 -4 16 5 28 20 27 34 38 26 14 -10 -17 -26 -17 -27 1
-19 24 11 48 11 105 2 43 -7 47 -6 52 15 4 14 -2 35 -15 57 -21 33 -21 34 -2
27 53 -22 55 -21 48 24 -5 31 -4 41 4 36 7 -4 12 -17 12 -28 0 -12 8 -31 18
-42 18 -20 18 -22 -1 -56 l-19 -35 7 40 c6 39 6 40 -10 17 -32 -43 -3 -80 75
-96 19 -4 30 1 48 24 23 29 23 30 3 30 -11 0 -24 -7 -29 -16 -6 -11 -16 -14
-31 -9 -30 9 -26 26 14 65 26 26 35 30 35 17 0 -15 8 -16 58 -11 80 8 82 9 83
46 1 31 2 30 17 -17 18 -52 45 -75 93 -75 14 0 34 -7 45 -16 18 -15 18 -15 -3
-5 -12 6 -39 11 -59 11 -25 0 -46 7 -61 22 -19 18 -23 19 -23 5 0 -20 30 -37
67 -37 15 -1 39 -7 53 -15 14 -8 35 -14 48 -15 12 0 22 -4 22 -10 0 -5 9 -10
20 -10 27 0 25 10 -10 44 -16 16 -32 37 -35 47 -4 11 -15 19 -25 19 -16 0 -19
7 -17 45 2 43 3 45 34 45 23 0 37 7 48 24 18 27 12 50 -22 88 l-25 26 28 14
c16 7 30 21 32 31 3 15 -1 17 -25 11 -15 -3 -37 -15 -47 -25 -19 -18 -19 -19
17 -58 39 -44 44 -60 25 -79 -19 -19 -50 -14 -98 18 -25 16 -52 30 -60 30 -8
0 -49 18 -91 39 -41 21 -86 42 -100 46 -13 4 -35 16 -48 26 -13 11 -31 19 -40
19 -9 0 -47 -25 -85 -55z m64 -40 c-13 -14 -26 -23 -28 -20 -3 3 5 16 18 30
13 14 26 23 28 20 3 -3 -5 -16 -18 -30z m-95 -125 c3 -5 -3 -10 -13 -10 -11 0
-23 -7 -26 -16 -4 -9 -9 -14 -12 -11 -3 3 -1 15 6 26 11 22 35 28 45 11z m-5
-100 c0 -5 -4 -10 -9 -10 -6 0 -13 5 -16 10 -3 6 1 10 9 10 9 0 16 -4 16 -10z"/>
<path d="M506 176 c3 -9 11 -16 16 -16 13 0 5 23 -10 28 -7 2 -10 -2 -6 -12z"/>
<path d="M1216 181 c-4 -5 -2 -12 3 -15 5 -4 12 -2 15 3 4 5 2 12 -3 15 -5 4
-12 2 -15 -3z"/>
<path d="M105 170 c-3 -5 -1 -10 4 -10 6 0 11 5 11 10 0 6 -2 10 -4 10 -3 0
-8 -4 -11 -10z"/>
<path d="M1630 170 c0 -5 5 -10 11 -10 5 0 7 5 4 10 -3 6 -8 10 -11 10 -2 0
-4 -4 -4 -10z"/>
<path d="M67 136 c-4 -10 -5 -21 -2 -24 9 -9 17 6 13 25 -3 17 -4 17 -11 -1z"/>
<path d="M1660 136 c0 -8 5 -18 10 -21 6 -3 10 1 10 9 0 8 -4 18 -10 21 -5 3
-10 -1 -10 -9z"/>
</g>
</svg>
