<?xml version="1.0" standalone="no"?>
<!DOCTYPE svg PUBLIC "-//W3C//DTD SVG 20010904//EN"
 "http://www.w3.org/TR/2001/REC-SVG-20010904/DTD/svg10.dtd">
<svg version="1.0" xmlns="http://www.w3.org/2000/svg"
 width="196.000000pt" height="151.000000pt" viewBox="0 0 196.000000 151.000000"
 preserveAspectRatio="xMidYMid meet">

<g transform="translate(0.000000,151.000000) scale(0.100000,-0.100000)"
fill="#000000" stroke="none">
<path d="M960 1318 c-11 -18 -20 -37 -20 -42 0 -5 -16 -42 -35 -82 -19 -40
-35 -77 -35 -83 0 -6 -3 -11 -8 -11 -4 0 -18 -29 -30 -65 -13 -36 -27 -65 -31
-65 -4 0 -15 -25 -25 -55 -9 -30 -21 -55 -27 -55 -5 0 -9 -5 -9 -11 0 -5 -12
-36 -26 -67 -15 -31 -41 -88 -59 -127 -18 -38 -38 -87 -46 -107 -7 -21 -16
-38 -20 -38 -3 0 -17 -28 -29 -62 -12 -35 -27 -66 -33 -70 -12 -7 -12 -69 0
-77 5 -3 17 -33 27 -66 42 -137 75 -177 97 -117 5 15 18 45 29 67 64 139 90
196 90 202 0 3 13 34 30 69 16 34 32 74 36 88 3 14 9 26 13 26 4 0 13 17 20
38 7 20 23 60 36 87 54 115 75 164 75 174 0 6 5 11 10 11 6 0 10 -5 10 -11 0
-10 30 -80 76 -174 13 -28 24 -54 24 -59 0 -6 9 -28 19 -50 49 -104 91 -197
91 -201 0 -3 16 -38 35 -79 19 -41 35 -80 35 -86 0 -6 6 -18 14 -25 7 -8 20
-35 27 -60 11 -37 18 -45 34 -43 11 2 21 12 24 23 2 11 7 22 11 25 4 3 18 39
30 80 12 41 27 78 32 81 13 8 13 72 0 77 -6 2 -20 32 -32 68 -12 35 -25 64
-29 64 -4 0 -13 17 -20 38 -8 20 -29 69 -47 109 -19 39 -34 76 -34 82 0 6 -4
11 -8 11 -4 0 -16 25 -27 55 -10 30 -22 55 -26 55 -4 0 -15 24 -24 53 -10 28
-23 59 -30 67 -7 8 -21 39 -31 68 -10 28 -22 52 -26 52 -5 0 -8 5 -8 11 0 6
-16 45 -35 87 -78 168 -82 173 -115 120z"/>
<path d="M154 1328 c-2 -4 0 -9 5 -12 4 -3 17 -37 27 -76 10 -38 21 -70 25
-70 3 0 14 -28 24 -62 9 -35 21 -68 27 -75 5 -6 17 -41 28 -78 11 -37 23 -72
28 -78 5 -7 17 -39 27 -72 10 -33 21 -64 25 -70 4 -5 15 -35 25 -65 10 -30 23
-68 30 -85 7 -16 21 -54 30 -82 9 -29 18 -53 20 -53 2 0 11 25 21 56 9 31 23
61 29 68 7 6 20 35 29 63 9 28 21 53 25 55 4 2 14 21 23 42 13 35 13 45 0 90
-8 28 -18 56 -22 61 -4 6 -16 39 -26 75 -10 36 -20 67 -24 70 -3 3 -16 41 -29
85 -13 44 -26 85 -31 90 -4 6 -15 37 -25 70 l-16 60 -136 0 c-74 0 -137 -3
-139 -7z"/>
<path d="M1533 1280 c-8 -30 -19 -59 -23 -65 -4 -5 -15 -37 -25 -70 -9 -33
-23 -73 -30 -90 -8 -16 -21 -57 -31 -90 -9 -33 -20 -64 -24 -70 -4 -5 -15 -34
-23 -64 -14 -49 -14 -58 0 -95 9 -23 19 -43 23 -46 3 -3 14 -27 25 -55 10 -27
21 -52 25 -55 4 -3 18 -33 30 -67 12 -35 24 -63 26 -63 1 0 10 26 19 58 9 31
21 62 25 67 4 6 18 44 31 85 12 41 25 77 29 80 7 6 40 107 40 125 0 7 4 15 9
17 4 2 20 39 35 83 59 173 69 200 76 205 3 3 14 34 24 70 10 36 23 71 28 78 6
6 9 12 7 12 -2 0 -66 2 -142 3 l-138 2 -16 -55z"/>
</g>
</svg>
